
<svg xmlns="http://www.w3.org/2000/svg" version="1.1" xmlns:xlink="http://www.w3.org/1999/xlink" preserveAspectRatio="none" x="0px" y="0px" width="600px" height="254px" viewBox="0 0 600 254">
<defs>
<linearGradient id="Gradient_1" gradientUnits="userSpaceOnUse" x1="196.0875" y1="136.3125" x2="290.7125" y2="273.6875" spreadMethod="reflect">
<stop  offset="0%" stop-color="#DADADA"/>

<stop  offset="100%" stop-color="#6B6B6B"/>
</linearGradient>

<linearGradient id="Gradient_2" gradientUnits="userSpaceOnUse" x1="495.98750000000007" y1="162.8875" x2="541.4125" y2="208.3125" spreadMethod="reflect">
<stop  offset="0%" stop-color="#404040"/>

<stop  offset="100%" stop-color="#6B6B6B"/>
</linearGradient>

<linearGradient id="Gradient_3" gradientUnits="userSpaceOnUse" x1="266.9375" y1="47.7875" x2="294.76250000000005" y2="75.61250000000001" spreadMethod="reflect">
<stop  offset="0%" stop-color="#DADADA"/>

<stop  offset="100%" stop-color="#FFFFFF"/>
</linearGradient>

<g id="_______192_0_Layer0_0_FILL">
<path fill="#808080" stroke="none" d="
M 535 30
L 535 6.9 -0.45 6.9 -0.45 30 535 30 Z"/>
</g>

<g id="_______202_0_Layer0_0_FILL">
<path fill="#5F5F5F" stroke="none" d="
M 393.05 19.6
L 393.05 0 364.8 0 364.8 0.3 364.8 19.6 393.05 19.6
M 455.6 19.6
L 455.6 0 427.35 0 427.35 19.6 455.6 19.6
M 131.5 19.6
L 131.5 0.3 131.5 0 103.25 0 103.25 0.3 103.25 19.6 131.5 19.6
M 58.15 19.6
L 58.15 0.3 58.15 0 29.9 0 29.9 0.3 29.9 19.6 58.15 19.6
M 171.4 0
L 171.4 0.3 171.4 19.6 199.65 19.6 199.65 0.3 199.65 0 171.4 0
M 329.6 19.6
L 329.6 0.3 329.6 0 301.35 0 301.35 0.3 301.35 19.6 329.6 19.6
M 263.1 19.6
L 263.1 0.3 263.1 0 234.85 0 234.85 0.3 234.85 19.6 263.1 19.6
M 490.8 0
L 490.8 19.6 519.05 19.6 519.05 0 490.8 0 Z"/>

<path fill="#808080" stroke="none" d="
M 427.35 19.6
L 427.35 0 393.05 0 393.05 19.6 427.35 19.6
M 103.25 19.6
L 103.25 0.3 58.15 0.3 58.15 19.6 103.25 19.6
M 171.4 19.6
L 171.4 0.3 131.5 0.3 131.5 19.6 171.4 19.6
M 29.9 19.6
L 29.9 0.3 0 0.3 0 2.05 0.45 2.05 0.45 19.6 29.9 19.6
M 364.8 19.6
L 364.8 0.3 329.6 0.3 329.6 19.6 364.8 19.6
M 301.35 19.6
L 301.35 0.3 263.1 0.3 263.1 19.6 301.35 19.6
M 234.85 19.6
L 234.85 0.3 199.65 0.3 199.65 19.6 234.85 19.6
M 490.8 19.6
L 490.8 0 455.6 0 455.6 19.6 490.8 19.6
M 552.45 19.6
Q 548.461328125 9.159375 543.4 0
L 519.05 0 519.05 19.6 552.45 19.6 Z"/>
</g>

<g id="_______185_0_Layer0_0_FILL">
<path fill="#9A9A9A" stroke="none" d="
M 55.05 3
Q 65.1619140625 1.7328125 74.4 0
L 7.8 0
Q 4.5 0 2.15 2.3 0.45 4.05 0 6.3
L 7.45 6.25
Q 33.2791015625 5.698828125 55.05 3 Z"/>

<path fill="#717171" stroke="none" d="
M 82.2 6.25
Q 82.125 5.95 82.05 5.65 82.025 5.55 82 5.45 81.4 3.7 80 2.3 77.7 0 74.4 0 65.1619140625 1.7328125 55.05 3 33.2791015625 5.698828125 7.45 6.25
L 82.2 6.25 Z"/>
</g>

<g id="_______186_0_Layer0_0_FILL">
<path fill="#4A4A4A" stroke="none" d="
M 2.7 0
L 0 0 0 8.05 2.7 8.05 2.7 0 Z"/>
</g>

<g id="_______187_0_Layer0_0_FILL">
<path fill="#B2B2B2" stroke="none" d="
M 0 0
L 0 8.05 5.4 8.05 5.4 0 0 0 Z"/>
</g>

<g id="_______1_0_Layer0_0_FILL">
<path fill="#404040" stroke="none" d="
M 50.5 17.3
L 27 17.3 27 224.4 50.5 224.4 50.5 146.8 50.5 123.4 50.5 17.3
M 43.6 33.6
Q 45.6 35.6 45.6 38.4
L 45.6 81.6 45.6 132.35
Q 45.6 132.8 45.55 133.2
L 45.6 137.15
Q 45.6 139.95 43.6 141.9 41.65 143.9 38.85 143.9
L 38.8 143.9
Q 36 143.9 34 141.9 32.05 139.95 32.05 137.15
L 32.1 133.2
Q 32.05 132.8 32.05 132.35
L 32.05 81.6 32.05 38.4
Q 32.05 35.6 34 33.6 36 31.65 38.8 31.65
L 38.85 31.65
Q 41.65 31.65 43.6 33.6
M 23.6 17.3
L 0 17.3 0 224.4 23.6 224.4 23.6 17.3
M 5.6 38.4
Q 5.6 35.6 7.55 33.6 9.55 31.65 12.35 31.65
L 12.4 31.65
Q 15.2 31.65 17.15 33.6 19.15 35.6 19.15 38.4
L 19.15 81.6 19.15 132.5 19.15 137.15
Q 19.15 139.95 17.15 141.9 15.2 143.9 12.4 143.9
L 12.35 143.9
Q 9.55 143.9 7.55 141.9 5.6 139.95 5.6 137.15
L 5.6 132.5 5.6 81.25 5.6 38.4 Z"/>

<path fill="#CCCCCC" stroke="none" d="
M 45.55 133.2
Q 45.3 135.45 43.6 137.1 41.65 139.1 38.85 139.1
L 38.8 139.1
Q 36 139.1 34 137.1 32.35 135.45 32.1 133.2
L 32.05 137.15
Q 32.05 139.95 34 141.9 36 143.9 38.8 143.9
L 38.85 143.9
Q 41.65 143.9 43.6 141.9 45.6 139.95 45.6 137.15
L 45.55 133.2
M 5.6 137.15
Q 5.6 139.95 7.55 141.9 9.55 143.9 12.35 143.9
L 12.4 143.9
Q 15.2 143.9 17.15 141.9 19.15 139.95 19.15 137.15
L 19.15 132.5
Q 19.1 135.2 17.15 137.1 15.2 139.1 12.4 139.1
L 12.35 139.1
Q 9.55 139.1 7.55 137.1 5.65 135.2 5.6 132.5
L 5.6 137.15
M 200.8 128.75
Q 200.65 136.35 192.85 136.35
L 110.75 136.35
Q 102.95 136.35 102.8 128.75
L 102.8 133.7
Q 102.8 141.65 110.75 141.65
L 192.85 141.65
Q 200.8 141.65 200.8 133.7
L 200.8 128.75
M 219.45 136.35
Q 212.4 136.35 212.25 128.75
L 212.25 133.7
Q 212.25 141.65 219.45 141.65
L 293.7 141.65
Q 300.9 141.65 300.9 133.7
L 300.9 128.75
Q 300.75 136.35 293.7 136.35
L 219.45 136.35
M 409.45 133.7
L 409.45 128.75
Q 409.3 136.35 401.5 136.35
L 319.4 136.35
Q 311.6 136.35 311.45 128.75
L 311.45 133.7
Q 311.45 141.65 319.4 141.65
L 401.5 141.65
Q 409.45 141.65 409.45 133.7
M 593 127.2
Q 595.35 135.9 589.65 136.35
L 447.8 136.35
Q 441.7 136.35 441.5 128.9
L 441.5 133.7
Q 441.5 141.65 447.8 141.65
L 589.95 141.65
Q 596.7 140 594.25 131.3
L 593 127.2 Z"/>

<path fill="#5D7884" stroke="none" d="
M 45.6 81.6
L 32.05 81.6 32.05 132.35
Q 32.05 132.8 32.1 133.2 32.35 135.45 34 137.1 36 139.1 38.8 139.1
L 38.85 139.1
Q 41.65 139.1 43.6 137.1 45.3 135.45 45.55 133.2 45.6 132.8 45.6 132.35
L 45.6 81.6
M 19.15 81.6
L 8.75 81.6
Q 7 81.6 5.6 81.25
L 5.6 132.5
Q 5.65 135.2 7.55 137.1 9.55 139.1 12.35 139.1
L 12.4 139.1
Q 15.2 139.1 17.15 137.1 19.1 135.2 19.15 132.5
L 19.15 81.6
M 200.8 128.75
L 200.8 123.4 200.8 81.6 102.8 81.6 102.8 123.4 102.8 128.75
Q 102.95 136.35 110.75 136.35
L 192.85 136.35
Q 200.65 136.35 200.8 128.75
M 212.25 123.4
L 212.25 128.75
Q 212.4 136.35 219.45 136.35
L 293.7 136.35
Q 300.75 136.35 300.9 128.75
L 300.9 123.4 300.9 81.6 212.25 81.6 212.25 123.4
M 200.8 26.35
Q 200.8 18.4 192.85 18.4
L 110.75 18.4
Q 102.8 18.4 102.8 26.35
L 102.8 31.1 200.8 31.1 200.8 26.35
M 300.9 26.35
Q 300.9 18.4 293.7 18.4
L 219.45 18.4
Q 212.25 18.4 212.25 26.35
L 212.25 31.1 300.9 31.1 300.9 26.35
M 409.45 128.75
L 409.45 123.4 409.45 81.6 311.45 81.6 311.45 123.4 311.45 128.75
Q 311.6 136.35 319.4 136.35
L 401.5 136.35
Q 409.3 136.35 409.45 128.75
M 409.45 31.1
L 409.45 26.35
Q 409.45 18.4 401.5 18.4
L 319.4 18.4
Q 311.45 18.4 311.45 26.35
L 311.45 31.1 409.45 31.1
M 589.65 136.35
Q 595.35 135.9 593 127.2
L 579.25 81.6 441.5 81.6 441.5 123.4 441.5 128.9
Q 441.7 136.35 447.8 136.35
L 589.65 136.35
M 561.85 24.05
Q 559.85 18.7 555.6 18.4
L 447.8 18.4
Q 441.5 18.4 441.5 26.35
L 441.5 31.1 564 31.1 561.85 24.05 Z"/>

<path fill="#84A8B0" stroke="none" d="
M 45.6 38.4
Q 45.6 35.6 43.6 33.6 41.65 31.65 38.85 31.65
L 38.8 31.65
Q 36 31.65 34 33.6 32.05 35.6 32.05 38.4
L 32.05 81.6 45.6 81.6 45.6 38.4
M 7.55 33.6
Q 5.6 35.6 5.6 38.4
L 5.6 81.25
Q 7 81.6 8.75 81.6
L 19.15 81.6 19.15 38.4
Q 19.15 35.6 17.15 33.6 15.2 31.65 12.4 31.65
L 12.35 31.65
Q 9.55 31.65 7.55 33.6
M 200.8 81.6
L 200.8 31.1 102.8 31.1 102.8 81.6 200.8 81.6
M 300.9 81.6
L 300.9 31.1 212.25 31.1 212.25 81.6 300.9 81.6
M 409.45 81.6
L 409.45 31.1 311.45 31.1 311.45 81.6 409.45 81.6
M 579.25 81.6
L 564 31.1 441.5 31.1 441.5 81.6 579.25 81.6 Z"/>

<path fill="#202020" stroke="none" d="
M 27 17.3
L 23.6 17.3 23.6 224.4 27 224.4 27 17.3 Z"/>

<path fill="url(#Gradient_1)" stroke="none" d="
M 438.15 224.4
L 438.15 146.8 50.5 146.8 50.5 224.4 438.15 224.4 Z"/>

<path fill="url(#Gradient_2)" stroke="none" d="
M 533.05 224.4
Q 559.75 223.3 582.9 203.95 601.85 182.85 599.05 146.8
L 438.15 146.8 438.15 224.4 533.05 224.4 Z"/>

<path fill="#FC260D" stroke="none" d="
M 594.25 131.3
Q 596.7 140 589.95 141.65
L 447.8 141.65
Q 441.5 141.65 441.5 133.7
L 441.5 128.9 441.5 123.4 409.45 123.4 409.45 128.75 409.45 133.7
Q 409.45 141.65 401.5 141.65
L 319.4 141.65
Q 311.45 141.65 311.45 133.7
L 311.45 128.75 311.45 123.4 300.9 123.4 300.9 128.75 300.9 133.7
Q 300.9 141.65 293.7 141.65
L 219.45 141.65
Q 212.25 141.65 212.25 133.7
L 212.25 128.75 212.25 123.4 200.8 123.4 200.8 128.75 200.8 133.7
Q 200.8 141.65 192.85 141.65
L 110.75 141.65
Q 102.8 141.65 102.8 133.7
L 102.8 128.75 102.8 123.4 50.5 123.4 50.5 146.8 438.15 146.8 599.05 146.8 594.25 131.3 Z"/>

<path fill="url(#Gradient_3)" stroke="none" d="
M 555.6 18.4
Q 559.85 18.7 561.85 24.05
L 556.35 7.1
Q 556.05 6.25 555.65 5.5 555.55 5.4 555.5 5.3 553.75 2.3 550.45 1 550.3 0.95 550.15 0.9 550.1 0.85 550.05 0.85 548.2 0.2 545.95 0
L 0 0 0 17.3 23.6 17.3 27 17.3 50.5 17.3 50.5 123.4 102.8 123.4 102.8 81.6 102.8 31.1 102.8 26.35
Q 102.8 18.4 110.75 18.4
L 192.85 18.4
Q 200.8 18.4 200.8 26.35
L 200.8 31.1 200.8 81.6 200.8 123.4 212.25 123.4 212.25 81.6 212.25 31.1 212.25 26.35
Q 212.25 18.4 219.45 18.4
L 293.7 18.4
Q 300.9 18.4 300.9 26.35
L 300.9 31.1 300.9 81.6 300.9 123.4 311.45 123.4 311.45 81.6 311.45 31.1 311.45 26.35
Q 311.45 18.4 319.4 18.4
L 401.5 18.4
Q 409.45 18.4 409.45 26.35
L 409.45 31.1 409.45 81.6 409.45 123.4 441.5 123.4 441.5 81.6 441.5 31.1 441.5 26.35
Q 441.5 18.4 447.8 18.4
L 555.6 18.4 Z"/>
</g>
</defs>

<g transform="matrix( 1, 0, 0, 1, 0,4.8) ">
<g transform="matrix( 1, 0, 0, 1, 0,0) ">
<use xlink:href="#_______192_0_Layer0_0_FILL"/>
</g>

<g transform="matrix( 1, 0, 0, 1, -0.45,6.9) ">
<g transform="matrix( 1, 0, 0, 1, 0,0) ">
<use xlink:href="#_______202_0_Layer0_0_FILL"/>
</g>
</g>

<g transform="matrix( 1, 0, 0, 1, 32.05,-4.1) ">
<g transform="matrix( 1, 0, 0, 1, 154.2,0) ">
<g transform="matrix( 1, 0, 0, 1, 0,5.05) ">
<g transform="matrix( 1, 0, 0, 1, 0,0) ">
<use xlink:href="#_______185_0_Layer0_0_FILL"/>
</g>
</g>

<g transform="matrix( 1, 0, 0, 0.6273345947265625, 13.35,0) ">
<g transform="matrix( 1, 0, 0, 1, 0,0) ">
<use xlink:href="#_______186_0_Layer0_0_FILL"/>
</g>
</g>

<g transform="matrix( 1, 0, 0, 0.6273345947265625, 7.95,0) ">
<g transform="matrix( 1, 0, 0, 1, 0,0) ">
<use xlink:href="#_______187_0_Layer0_0_FILL"/>
</g>
</g>

<g transform="matrix( 1, 0, 0, 0.6273345947265625, 23,0) ">
<g transform="matrix( 1, 0, 0, 1, 0,0) ">
<use xlink:href="#_______186_0_Layer0_0_FILL"/>
</g>
</g>

<g transform="matrix( 1, 0, 0, 0.6273345947265625, 17.6,0) ">
<g transform="matrix( 1, 0, 0, 1, 0,0) ">
<use xlink:href="#_______187_0_Layer0_0_FILL"/>
</g>
</g>

<g transform="matrix( 1, 0, 0, 0.6273345947265625, 32.6,0) ">
<g transform="matrix( 1, 0, 0, 1, 0,0) ">
<use xlink:href="#_______186_0_Layer0_0_FILL"/>
</g>
</g>

<g transform="matrix( 1, 0, 0, 0.6273345947265625, 27.2,0) ">
<g transform="matrix( 1, 0, 0, 1, 0,0) ">
<use xlink:href="#_______187_0_Layer0_0_FILL"/>
</g>
</g>

<g transform="matrix( 1, 0, 0, 0.6273345947265625, 42.25,0) ">
<g transform="matrix( 1, 0, 0, 1, 0,0) ">
<use xlink:href="#_______186_0_Layer0_0_FILL"/>
</g>
</g>

<g transform="matrix( 1, 0, 0, 0.6273345947265625, 36.85,0) ">
<g transform="matrix( 1, 0, 0, 1, 0,0) ">
<use xlink:href="#_______187_0_Layer0_0_FILL"/>
</g>
</g>

<g transform="matrix( 1, 0, 0, 0.6273345947265625, 52.4,0) ">
<g transform="matrix( 1, 0, 0, 1, 0,0) ">
<use xlink:href="#_______186_0_Layer0_0_FILL"/>
</g>
</g>

<g transform="matrix( 1, 0, 0, 0.6273345947265625, 47,0) ">
<g transform="matrix( 1, 0, 0, 1, 0,0) ">
<use xlink:href="#_______187_0_Layer0_0_FILL"/>
</g>
</g>

<g transform="matrix( 1, 0, 0, 0.6273345947265625, 62.05,0) ">
<g transform="matrix( 1, 0, 0, 1, 0,0) ">
<use xlink:href="#_______186_0_Layer0_0_FILL"/>
</g>
</g>

<g transform="matrix( 1, 0, 0, 0.6273345947265625, 56.65,0) ">
<g transform="matrix( 1, 0, 0, 1, 0,0) ">
<use xlink:href="#_______187_0_Layer0_0_FILL"/>
</g>
</g>

<g transform="matrix( 1, 0, 0, 0.6273345947265625, 71.65,0) ">
<g transform="matrix( 1, 0, 0, 1, 0,0) ">
<use xlink:href="#_______186_0_Layer0_0_FILL"/>
</g>
</g>

<g transform="matrix( 1, 0, 0, 0.6273345947265625, 66.25,0) ">
<g transform="matrix( 1, 0, 0, 1, 0,0) ">
<use xlink:href="#_______187_0_Layer0_0_FILL"/>
</g>
</g>
</g>

<g transform="matrix( 1, 0, 0, 1, 308.45,0) ">
<g transform="matrix( 1, 0, 0, 1, 0,5.05) ">
<g transform="matrix( 1, 0, 0, 1, 0,0) ">
<use xlink:href="#_______185_0_Layer0_0_FILL"/>
</g>
</g>

<g transform="matrix( 1, 0, 0, 0.6273345947265625, 13.35,0) ">
<g transform="matrix( 1, 0, 0, 1, 0,0) ">
<use xlink:href="#_______186_0_Layer0_0_FILL"/>
</g>
</g>

<g transform="matrix( 1, 0, 0, 0.6273345947265625, 7.95,0) ">
<g transform="matrix( 1, 0, 0, 1, 0,0) ">
<use xlink:href="#_______187_0_Layer0_0_FILL"/>
</g>
</g>

<g transform="matrix( 1, 0, 0, 0.6273345947265625, 23,0) ">
<g transform="matrix( 1, 0, 0, 1, 0,0) ">
<use xlink:href="#_______186_0_Layer0_0_FILL"/>
</g>
</g>

<g transform="matrix( 1, 0, 0, 0.6273345947265625, 17.6,0) ">
<g transform="matrix( 1, 0, 0, 1, 0,0) ">
<use xlink:href="#_______187_0_Layer0_0_FILL"/>
</g>
</g>

<g transform="matrix( 1, 0, 0, 0.6273345947265625, 32.6,0) ">
<g transform="matrix( 1, 0, 0, 1, 0,0) ">
<use xlink:href="#_______186_0_Layer0_0_FILL"/>
</g>
</g>

<g transform="matrix( 1, 0, 0, 0.6273345947265625, 27.2,0) ">
<g transform="matrix( 1, 0, 0, 1, 0,0) ">
<use xlink:href="#_______187_0_Layer0_0_FILL"/>
</g>
</g>

<g transform="matrix( 1, 0, 0, 0.6273345947265625, 42.25,0) ">
<g transform="matrix( 1, 0, 0, 1, 0,0) ">
<use xlink:href="#_______186_0_Layer0_0_FILL"/>
</g>
</g>

<g transform="matrix( 1, 0, 0, 0.6273345947265625, 36.85,0) ">
<g transform="matrix( 1, 0, 0, 1, 0,0) ">
<use xlink:href="#_______187_0_Layer0_0_FILL"/>
</g>
</g>

<g transform="matrix( 1, 0, 0, 0.6273345947265625, 52.4,0) ">
<g transform="matrix( 1, 0, 0, 1, 0,0) ">
<use xlink:href="#_______186_0_Layer0_0_FILL"/>
</g>
</g>

<g transform="matrix( 1, 0, 0, 0.6273345947265625, 47,0) ">
<g transform="matrix( 1, 0, 0, 1, 0,0) ">
<use xlink:href="#_______187_0_Layer0_0_FILL"/>
</g>
</g>

<g transform="matrix( 1, 0, 0, 0.6273345947265625, 62.05,0) ">
<g transform="matrix( 1, 0, 0, 1, 0,0) ">
<use xlink:href="#_______186_0_Layer0_0_FILL"/>
</g>
</g>

<g transform="matrix( 1, 0, 0, 0.6273345947265625, 56.65,0) ">
<g transform="matrix( 1, 0, 0, 1, 0,0) ">
<use xlink:href="#_______187_0_Layer0_0_FILL"/>
</g>
</g>

<g transform="matrix( 1, 0, 0, 0.6273345947265625, 71.65,0) ">
<g transform="matrix( 1, 0, 0, 1, 0,0) ">
<use xlink:href="#_______186_0_Layer0_0_FILL"/>
</g>
</g>

<g transform="matrix( 1, 0, 0, 0.6273345947265625, 66.25,0) ">
<g transform="matrix( 1, 0, 0, 1, 0,0) ">
<use xlink:href="#_______187_0_Layer0_0_FILL"/>
</g>
</g>
</g>
</g>

<g transform="matrix( 1, 0, 0, 1, 0,24.85) ">
<g transform="matrix( 1, 0, 0, 1, 0,0) ">
<use xlink:href="#_______1_0_Layer0_0_FILL"/>
</g>
</g>
</g>
</svg>
